<?xml version="1.0" standalone="no"?>
<!DOCTYPE svg PUBLIC "-//W3C//DTD SVG 20010904//EN"
 "http://www.w3.org/TR/2001/REC-SVG-20010904/DTD/svg10.dtd">
<svg version="1.0" xmlns="http://www.w3.org/2000/svg"
 width="800.000000pt" height="800.000000pt" viewBox="0 0 800.000000 800.000000"
 preserveAspectRatio="xMidYMid meet">

<g transform="translate(0.000000,800.000000) scale(0.100000,-0.100000)"
fill="#000000" stroke="none">
<path d="M2047 5968 l-1436 -1453 500 -493 c274 -272 499 -498 499 -503 0 -5
-6 -9 -13 -9 -7 0 -28 -15 -46 -34 -18 -19 -45 -37 -58 -41 -14 -3 -52 -25
-85 -48 -65 -46 -125 -135 -153 -229 -18 -61 -20 -233 -4 -289 l12 -38 -72
-77 c-98 -105 -120 -151 -128 -268 -6 -89 -5 -95 22 -144 15 -29 57 -79 92
-113 73 -70 76 -85 36 -168 l-26 -56 11 -285 c12 -304 10 -333 -33 -452 -32
-89 -32 -132 -1 -163 13 -13 37 -27 53 -30 15 -4 45 -13 66 -21 20 -8 65 -14
99 -14 l61 0 62 -63 c88 -91 151 -120 263 -121 48 0 130 5 182 11 l95 11 90
-48 c164 -87 186 -92 434 -88 211 4 218 5 281 32 36 16 85 37 110 48 45 19
168 126 187 162 10 18 13 18 54 -12 71 -50 108 -55 426 -50 l288 3 60 38 c33
21 83 56 110 78 28 21 82 55 120 76 69 35 191 130 250 193 64 68 176 103 284
89 36 -4 88 -12 115 -18 57 -10 99 -1 147 34 19 13 63 40 99 59 58 30 170 131
170 153 0 4 14 16 30 25 17 10 33 25 37 35 3 10 12 33 19 51 l14 33 33 -25
c84 -64 221 -92 263 -54 11 9 48 26 84 39 71 24 103 41 182 94 131 87 168 115
240 183 43 40 94 80 114 88 19 8 64 41 99 74 38 35 94 74 141 97 96 47 199
146 263 251 30 49 49 72 63 72 25 0 150 59 220 103 136 88 256 270 280 428 25
167 11 486 -25 555 -40 78 -221 198 -347 230 -42 10 -86 15 -126 11 l-61 -4
-63 84 c-34 47 -86 103 -115 126 l-52 40 -6 101 c-9 164 -39 223 -157 301 -39
26 -94 73 -122 106 -74 83 -106 91 -353 90 -104 -1 -208 -6 -230 -11 -22 -5
-63 -10 -92 -10 -42 0 -53 4 -58 19 -3 10 -41 53 -85 95 -89 85 -178 136 -239
136 -22 0 -52 5 -68 12 -15 6 -79 14 -142 17 l-114 6 250 255 251 255 -951
940 c-522 517 -953 941 -957 943 -4 2 -654 -651 -1443 -1450z m2463 273 l715
-708 -570 -577 c-313 -318 -754 -764 -980 -992 l-410 -415 -51 1 c-71 0 -273
-62 -341 -106 -29 -19 -57 -34 -62 -34 -15 0 -136 -83 -227 -156 -68 -55 -108
-97 -159 -169 -38 -53 -72 -98 -78 -102 -5 -3 -183 167 -395 378 -213 211
-561 557 -775 769 -213 212 -386 388 -385 391 2 3 608 619 1347 1367 l1345
1361 155 -150 c86 -82 478 -468 871 -858z m608 -1367 c23 -8 59 -14 78 -14 62
0 139 -51 211 -139 l45 -55 -92 -23 c-50 -13 -100 -28 -111 -34 -47 -25 -43
-103 6 -115 15 -4 53 1 88 11 94 27 147 35 326 46 126 7 192 17 279 39 169 44
190 41 275 -38 29 -27 81 -68 115 -91 74 -50 91 -80 99 -180 l5 -66 -113 0
c-93 -1 -124 -5 -169 -23 -112 -44 -178 -124 -230 -280 -37 -109 -36 -145 6
-164 40 -19 73 14 99 98 54 175 119 238 258 251 125 11 236 -37 317 -139 63
-79 66 -90 41 -135 -35 -62 -81 -163 -114 -248 -26 -67 -31 -97 -34 -189 -3
-60 -2 -120 1 -132 13 -50 62 -69 102 -40 16 12 20 31 25 133 5 98 11 131 36
198 33 87 61 148 96 208 l22 39 90 -4 c83 -4 96 -8 174 -49 46 -24 102 -60
124 -80 37 -32 42 -42 49 -100 49 -375 -11 -600 -195 -735 -54 -40 -177 -108
-182 -101 -1 1 -9 22 -17 47 -19 59 -102 130 -153 130 -35 0 -60 -17 -70 -50
-7 -21 10 -60 25 -60 5 0 25 -14 45 -31 32 -28 35 -36 35 -83 0 -61 -15 -86
-120 -199 -50 -54 -81 -77 -136 -103 -45 -20 -95 -55 -135 -92 -35 -32 -81
-67 -102 -77 -20 -9 -75 -52 -121 -94 -80 -73 -131 -112 -202 -156 -17 -11
-53 -35 -80 -53 -27 -17 -74 -39 -104 -48 -30 -8 -78 -22 -105 -30 -81 -24
-138 8 -128 71 6 39 -7 62 -44 76 -19 7 -23 16 -23 55 0 30 -6 54 -17 66 -20
22 -66 24 -87 3 -22 -22 -29 -93 -17 -159 10 -53 9 -60 -11 -87 -12 -16 -36
-38 -53 -48 -21 -12 -35 -31 -44 -60 -17 -58 -72 -115 -155 -162 -39 -22 -84
-49 -101 -59 -29 -17 -34 -17 -132 0 -56 10 -106 21 -112 24 -5 3 -28 -1 -52
-9 -24 -7 -68 -21 -98 -29 -53 -16 -128 -64 -166 -106 -42 -47 -166 -140 -240
-181 -43 -23 -105 -65 -139 -92 -102 -82 -93 -79 -358 -85 -160 -3 -251 -1
-282 7 -44 11 -136 67 -136 82 0 17 -33 39 -60 39 -30 0 -53 -22 -104 -101
-46 -71 -107 -118 -208 -160 l-93 -38 -190 -1 c-214 0 -228 3 -360 75 -118 64
-115 56 -115 380 0 252 -1 266 -20 285 -26 26 -62 25 -86 -1 -18 -20 -19 -40
-19 -314 l0 -293 -81 -12 c-151 -24 -236 7 -312 113 -39 56 -41 91 -6 166 14
31 30 65 35 76 5 11 20 76 34 145 14 69 33 144 41 167 19 48 15 132 -6 158 -7
8 -27 15 -46 15 -40 0 -64 -29 -64 -80 0 -19 -7 -55 -16 -79 -15 -45 -40 -150
-55 -234 -4 -26 -24 -80 -43 -120 -22 -44 -36 -88 -36 -110 0 -34 -2 -37 -29
-37 -40 0 -91 20 -91 36 0 7 8 35 18 61 31 79 44 164 38 238 -3 39 -9 160 -12
271 -5 176 -4 205 11 233 9 18 23 62 30 98 13 61 44 113 68 113 5 0 23 7 40
15 38 17 153 61 217 82 25 8 80 18 122 22 89 9 108 21 108 67 0 83 -104 87
-324 13 -83 -28 -155 -54 -161 -59 -5 -4 -30 -10 -55 -13 -28 -4 -51 -13 -62
-26 -9 -12 -21 -21 -26 -21 -6 0 -32 25 -58 56 -47 55 -48 57 -46 116 2 33 9
74 16 92 13 32 95 120 173 188 54 48 66 70 53 102 -5 14 -14 26 -19 26 -5 0
-17 7 -25 16 -12 12 -16 38 -16 112 0 90 3 103 34 169 35 73 89 123 148 138
14 4 46 26 71 49 35 32 47 50 47 72 0 27 3 26 74 -45 69 -69 74 -76 69 -108
-6 -37 17 -73 47 -73 9 0 75 -61 146 -135 108 -113 134 -146 157 -203 50 -118
56 -136 57 -179 0 -23 4 -44 9 -47 4 -3 11 -20 15 -38 3 -17 14 -40 23 -50 21
-24 71 -23 103 2 24 18 25 23 22 109 -3 106 14 164 86 295 38 70 62 98 128
155 103 88 229 174 319 217 38 19 91 45 117 59 51 27 118 39 316 55 l123 10
37 -30 c22 -17 58 -34 86 -39 33 -6 59 -19 84 -44 51 -48 75 -59 105 -48 44
17 49 66 11 116 -35 46 -110 92 -162 101 -23 4 -48 14 -55 23 -19 27 -60 51
-85 51 -19 0 114 140 621 653 l645 652 154 -3 c98 -2 168 -9 196 -18z"/>
<path d="M2223 5812 l-1273 -1287 683 -677 c375 -373 688 -677 695 -675 7 1
584 580 1282 1287 l1270 1285 -682 677 c-376 373 -687 677 -693 677 -5 0 -583
-579 -1282 -1287z m2105 404 l474 -468 -139 -141 c-76 -78 -632 -643 -1237
-1255 l-1100 -1113 -175 173 c-97 96 -389 384 -649 641 l-473 468 202 207
c112 114 669 678 1238 1255 l1035 1047 176 -173 c96 -95 388 -383 648 -641z"/>
<path d="M4607 4354 c-18 -20 -51 -47 -74 -61 -52 -30 -284 -269 -314 -323
-13 -23 -34 -43 -51 -49 -41 -14 -55 -57 -30 -90 23 -32 69 -38 111 -16 17 8
61 57 99 108 136 181 334 337 430 337 20 0 119 -10 219 -22 l183 -22 47 -38
c27 -21 74 -55 106 -76 130 -83 122 -75 120 -118 -2 -21 -9 -55 -17 -74 -8
-19 -20 -66 -25 -103 -15 -106 -65 -168 -162 -202 -24 -9 -76 -34 -116 -55
-40 -22 -84 -40 -99 -40 -16 0 -37 -11 -54 -30 -16 -17 -38 -30 -52 -30 -58 0
-399 -100 -480 -141 -57 -29 -126 -78 -170 -121 -41 -41 -73 -48 -213 -48
-122 0 -137 -2 -155 -20 -26 -26 -25 -62 1 -86 18 -16 40 -19 155 -22 181 -5
222 8 322 99 92 84 153 111 402 174 36 10 75 21 88 26 13 5 48 9 78 9 49 0 63
-5 114 -41 68 -47 106 -50 129 -8 20 36 7 74 -34 102 l-35 24 52 33 c29 18 81
43 115 55 77 28 132 71 185 142 32 44 42 69 50 122 6 36 20 98 32 136 11 39
21 98 21 133 0 61 -1 64 -40 98 -22 19 -62 46 -90 60 -27 15 -68 41 -90 58
-128 102 -135 105 -256 121 -132 17 -350 35 -421 35 -44 0 -53 -4 -81 -36z"/>
<path d="M5870 3493 c-107 -19 -271 -85 -304 -121 -33 -37 -20 -93 24 -107 11
-4 47 8 87 28 78 39 212 77 274 77 38 0 49 -6 104 -57 34 -32 74 -66 88 -75
35 -24 76 -102 91 -175 8 -35 19 -70 26 -78 18 -22 73 -19 94 4 49 54 -38 285
-131 351 -26 18 -78 62 -115 97 l-66 63 -74 -1 c-40 -1 -84 -4 -98 -6z"/>
<path d="M5715 3020 c-21 -22 -44 -40 -50 -40 -5 0 -21 -9 -35 -20 -14 -11
-63 -38 -109 -60 -47 -22 -98 -51 -115 -64 -57 -43 -149 -80 -209 -84 -49 -4
-61 -9 -79 -32 -19 -26 -23 -27 -57 -18 -21 6 -109 9 -207 6 -140 -3 -176 -7
-198 -21 -30 -20 -35 -61 -12 -93 14 -18 26 -19 204 -16 l190 4 91 -47 c112
-58 136 -77 161 -125 23 -45 64 -80 95 -80 30 0 55 30 55 66 -1 40 -74 140
-138 188 l-52 39 47 17 c84 31 137 57 174 86 19 16 60 40 90 53 118 51 153 72
221 130 56 49 72 84 56 119 -10 21 -21 28 -48 30 -30 2 -41 -3 -75 -38z"/>
<path d="M2793 2875 c-58 -25 -67 -79 -17 -112 21 -14 32 -14 84 -3 63 13 154
2 210 -26 45 -22 118 -109 130 -154 15 -54 7 -82 -38 -149 -20 -30 -57 -84
-82 -120 -25 -36 -71 -101 -103 -143 -66 -89 -74 -127 -31 -154 19 -13 32 -15
52 -8 26 9 101 100 169 205 21 33 52 78 70 101 l31 41 64 -2 c39 -1 82 4 109
14 65 23 171 31 211 15 18 -7 56 -30 84 -52 54 -41 93 -48 118 -22 46 45 -1
115 -117 174 -68 35 -87 40 -145 40 -37 0 -92 -7 -122 -15 -30 -9 -74 -18 -97
-22 l-43 -6 0 69 c0 87 -30 155 -97 220 -67 64 -112 93 -174 110 -69 18 -224
18 -266 -1z"/>
<path d="M4194 2349 c-16 -18 -19 -34 -16 -105 1 -51 -2 -94 -10 -107 -24 -46
-113 -136 -155 -158 -71 -37 -94 -87 -55 -122 45 -40 131 -2 229 101 95 99
123 154 123 241 -1 120 -23 171 -75 171 -12 0 -30 -9 -41 -21z"/>
<path d="M3605 1973 c-11 -3 -26 -10 -34 -17 -26 -21 -89 -112 -121 -177 -18
-35 -41 -76 -51 -91 -23 -32 -25 -81 -3 -102 40 -41 101 -1 151 98 45 91 93
163 123 185 18 13 30 31 30 45 0 39 -50 69 -95 59z"/>
<path d="M2710 1504 c-20 -11 -52 -13 -151 -8 -120 7 -127 6 -148 -15 -25 -25
-27 -48 -6 -78 18 -25 40 -30 182 -38 118 -7 168 3 212 44 73 68 1 145 -89 95z"/>
</g>
</svg>
